<svg xmlns="http://www.w3.org/2000/svg" width="512" height="512" viewBox="0 0 512 512">
  <defs>
    <linearGradient id="bg" x1="0" y1="0" x2="1" y2="1">
      <stop offset="0" stop-color="#0d0d1f"/><stop offset="1" stop-color="#1a1033"/>
    </linearGradient>
    <linearGradient id="neon" x1="0" y1="0" x2="1" y2="1">
      <stop offset="0" stop-color="#37e6ff"/><stop offset="0.5" stop-color="#7b5cff"/><stop offset="1" stop-color="#ff4fd8"/>
    </linearGradient>
    <filter id="glow" x="-40%" y="-40%" width="180%" height="180%">
      <feGaussianBlur stdDeviation="14" result="b"/>
      <feMerge><feMergeNode in="b"/><feMergeNode in="SourceGraphic"/></feMerge>
    </filter>
  </defs>
  <rect width="512" height="512" fill="url(#bg)"/>
  <circle cx="256" cy="256" r="216" fill="none" stroke="url(#neon)" stroke-width="10" opacity="0.9" filter="url(#glow)"/>
  <text x="256" y="318" font-family="Helvetica, Arial" font-size="240" font-weight="900" fill="url(#neon)" text-anchor="middle" filter="url(#glow)">B</text>
  <g transform="translate(166,364)">
    <rect x="0" y="0" width="180" height="52" rx="8" fill="#12122a" stroke="#3a3a5e" stroke-width="3"/>
    <rect x="6"  y="4" width="22" height="44" rx="3" fill="#f4f4ff"/>
    <rect x="31" y="4" width="22" height="44" rx="3" fill="#f4f4ff"/>
    <rect x="56" y="4" width="22" height="44" rx="3" fill="#f4f4ff"/>
    <rect x="81" y="4" width="22" height="44" rx="3" fill="#f4f4ff"/>
    <rect x="106" y="4" width="22" height="44" rx="3" fill="#f4f4ff"/>
    <rect x="131" y="4" width="22" height="44" rx="3" fill="#f4f4ff"/>
    <rect x="156" y="4" width="18" height="44" rx="3" fill="#f4f4ff"/>
    <rect x="22" y="4" width="14" height="27" rx="2" fill="#0a0a18"/>
    <rect x="47" y="4" width="14" height="27" rx="2" fill="#0a0a18"/>
    <rect x="97" y="4" width="14" height="27" rx="2" fill="#0a0a18"/>
    <rect x="122" y="4" width="14" height="27" rx="2" fill="#0a0a18"/>
    <rect x="147" y="4" width="14" height="27" rx="2" fill="#0a0a18"/>
  </g>
</svg>
