<svg xmlns="http://www.w3.org/2000/svg" width="512" height="512" viewBox="0 0 512 512">
  <defs>
    <linearGradient id="bg" x1="0" y1="0" x2="1" y2="1">
      <stop offset="0" stop-color="#1b1035"/><stop offset="1" stop-color="#3b1d6e"/>
    </linearGradient>
    <radialGradient id="glow" cx="0.5" cy="0.42" r="0.55">
      <stop offset="0" stop-color="#ffd766" stop-opacity="0.95"/>
      <stop offset="0.55" stop-color="#ff9d3c" stop-opacity="0.35"/>
      <stop offset="1" stop-color="#ff9d3c" stop-opacity="0"/>
    </radialGradient>
  </defs>
  <rect width="512" height="512" rx="96" fill="url(#bg)"/>
  <circle cx="256" cy="215" r="150" fill="url(#glow)"/>
  <path d="M256 105 a86 86 0 0 1 86 86 c0 34 -16 52 -30 68 c-11 13 -18 22 -20 38 l-72 0 c-2 -16 -9 -25 -20 -38 c-14 -16 -30 -34 -30 -68 a86 86 0 0 1 86 -86 z" fill="#ffffff"/>
  <rect x="222" y="311" width="68" height="14" rx="7" fill="#cfc4ea"/>
  <rect x="226" y="331" width="60" height="14" rx="7" fill="#cfc4ea"/>
  <rect x="238" y="351" width="36" height="12" rx="6" fill="#a795d6"/>
  <text x="256" y="452" font-family="Helvetica, Arial" font-size="86" font-weight="bold" fill="#ffffff" text-anchor="middle">BenLab</text>
</svg>
